<?xml version="1.0" standalone="no"?><!DOCTYPE svg PUBLIC "-//W3C//DTD SVG 1.1//EN" "http://www.w3.org/Graphics/SVG/1.1/DTD/svg11.dtd"><svg t="1565232178726" class="icon" viewBox="0 0 1170 1024" version="1.1" xmlns="http://www.w3.org/2000/svg" p-id="2129" xmlns:xlink="http://www.w3.org/1999/xlink" width="228.515625" height="200"><defs><style type="text/css"></style></defs><path d="M298.276571 186.733714c-50.907429 0-92.086857 41.179429-92.086857 92.086857v400.457143c0 50.834286 41.179429 92.013714 92.086857 92.013715h573.001143c50.907429 0 92.086857-41.179429 92.086857-92.013715V278.820571c0-50.907429-41.179429-92.086857-92.086857-92.086857H298.276571z" fill="#ffffff" p-id="2130"></path><path d="M1124.937143 575.634286a45.202286 45.202286 0 0 0-45.129143 45.129143v199.753142c0 25.307429-20.699429 46.08-46.08 46.08h-218.843429a45.202286 45.202286 0 0 0 0 90.185143h218.916572a136.411429 136.411429 0 0 0 136.192-136.265143v-199.68a45.202286 45.202286 0 0 0-45.056-45.129142zM45.129143 382.464c24.868571 0 45.056-20.260571 45.056-45.129143V137.508571c0-25.307429 20.772571-46.08 46.08-46.08H353.28a45.202286 45.202286 0 0 0 0-90.185142H136.265143A136.338286 136.338286 0 0 0 0 137.508571v199.68c0 24.868571 20.260571 45.202286 45.129143 45.202286z m308.150857 484.205714H136.265143a46.153143 46.153143 0 0 1-46.08-46.08v-199.68a45.202286 45.202286 0 0 0-90.185143 0v199.68c0 75.337143 61.220571 136.265143 136.265143 136.265143H353.28a45.202286 45.202286 0 0 0 0-90.185143zM814.445714 91.428571h218.843429c25.380571 0 46.08 20.699429 46.08 46.006858v199.68a45.202286 45.202286 0 0 0 90.185143 0V137.508571A136.557714 136.557714 0 0 0 1033.289143 1.243429h-218.843429a45.202286 45.202286 0 0 0 0 90.258285z" fill="#ffffff" p-id="2131"></path></svg>