<?xml version="1.0" standalone="no"?><!DOCTYPE svg PUBLIC "-//W3C//DTD SVG 1.1//EN" "http://www.w3.org/Graphics/SVG/1.1/DTD/svg11.dtd"><svg t="1564972769577" class="icon" viewBox="0 0 1252 1024" version="1.1" xmlns="http://www.w3.org/2000/svg" p-id="7691" xmlns:xlink="http://www.w3.org/1999/xlink" width="244.53125" height="200"><defs><style type="text/css"></style></defs><path d="M975.668 541.322a39.955 39.955 0 0 1-39.955 39.954H806.827v9.022a36.733 36.733 0 0 1-23.2 35.444h80.554a39.955 39.955 0 0 1 39.955 39.955 38.666 38.666 0 0 1-39.955 38.021H377.636a40.6 40.6 0 1 1 0-80.554h45.11a39.955 39.955 0 0 1-23.2-35.443 36.733 36.733 0 0 1 23.2-34.8h-80.553a48.977 48.977 0 0 1-48.977-48.332 36.088 36.088 0 0 1 6.444-21.91h-48.332a41.244 41.244 0 0 1-39.955-41.244 38.021 38.021 0 0 1 23.2-35.444h-37.377a40.6 40.6 0 0 1-40.6-39.954 39.31 39.31 0 0 1 40.6-38.666h189.462a14.177 14.177 0 0 0 14.178-14.178 14.177 14.177 0 0 0-14.178-14.822h-71.532a39.31 39.31 0 0 1 16.756-74.754H525.21a9.666 9.666 0 0 0 10.31-10.955 9.666 9.666 0 0 0-10.31-10.31h-30.933a25.133 25.133 0 0 1-12.888-21.911v-12.89a24.488 24.488 0 0 1 24.488-24.487h386.658a24.488 24.488 0 0 1 24.489 24.488v12.889a27.71 27.71 0 0 1-12.89 21.91H833.25a9.666 9.666 0 0 0-10.956 10.311 9.666 9.666 0 0 0 10.956 10.955H971.8a39.955 39.955 0 0 1 39.955 39.955 36.733 36.733 0 0 1-23.2 34.8h158.53a40.6 40.6 0 0 1 39.955 40.598 39.955 39.955 0 0 1-39.955 39.955H970.512a25.133 25.133 0 0 1 12.889 22.555 22.555 22.555 0 0 1-12.889 21.91h86.998a24.488 24.488 0 1 1 0 48.978H928.624a14.822 14.822 0 0 0-14.822 14.821 14.822 14.822 0 0 0 14.822 14.178h16.755a39.955 39.955 0 0 1 30.289 39.955z m38.021 45.11a24.488 24.488 0 0 1 24.488-24.489h24.489a25.133 25.133 0 1 1 0 49.622h-24.489c-12.888 2.577-24.488-9.023-24.488-25.133z m30.933-328.66a25.133 25.133 0 0 1 24.488-25.133h26.422a25.133 25.133 0 0 1 24.488 25.133 24.488 24.488 0 0 1-24.488 24.489h-23.844a23.844 23.844 0 0 1-27.066-24.489z m-893.18 0a25.133 25.133 0 0 1 24.488-25.133h25.132a25.133 25.133 0 0 1 24.489 25.133 24.488 24.488 0 0 1-24.489 24.489H175.93a25.133 25.133 0 0 1-24.489-30.289z" fill="#7F7F7F" p-id="7692"></path><path d="M322.215 193.33l-12.888 23.843-13.533-23.844-23.2-14.177 23.2-12.889 12.888-24.488 12.889 24.488 26.421 12.889z m737.229-28.356l-12.889 24.489-15.466-25.133-25.777-12.889 25.777-12.888 12.888-25.133 12.889 25.133 25.133 12.888z m-54.132 471.079l-13.534 25.133-12.888-25.133-25.777-12.889 25.777-14.177 12.888-24.489 13.534 24.489 25.777 14.177z m151.44-221.684l-9.021 16.755-9.022-16.755-18.044-9.022 18.044-10.311 9.022-18.689 9.022 18.689 16.755 10.31zM502.013 90.22l-9.023 18.044-10.31-18.044-18.045-7.733 18.044-10.31 10.311-18.045 9.022 18.044 16.756 10.311z m-289.35 520.7l-9.022 16.755-10.31-16.755-16.756-9.022 16.755-10.31 10.311-18.045 9.022 18.044 18.044 10.311z" fill="#616D95" p-id="7693"></path><path d="M464.634 438.213a186.885 186.885 0 0 0 94.732 161.752 193.33 193.33 0 0 0 188.818 0 186.24 186.24 0 0 0-94.087-348.637 188.174 188.174 0 0 0-189.463 186.885z" fill="#FDFCE2" p-id="7694"></path><path d="M501.367 674.074a24.488 24.488 0 0 1-32.866-12.888 23.844 23.844 0 0 1 7.089-33.51 24.488 24.488 0 0 1 32.866 12.888 24.488 24.488 0 0 1-7.09 33.51zM233.928 445.946a11.6 11.6 0 0 0 3.867 9.022 9.022 9.022 0 0 0 9.022 0 10.31 10.31 0 0 0 5.155-9.022 11.6 11.6 0 0 0-3.866-9.022 7.733 7.733 0 0 0-9.022 0 8.378 8.378 0 0 0-5.156 9.022z m184.307-155.308a18.044 18.044 0 0 1-10.955-23.2 18.688 18.688 0 0 1 21.266-14.177 18.044 18.044 0 0 1 10.311 23.2 18.688 18.688 0 0 1-20.622 14.177z m309.971-103.753a12.244 12.244 0 0 1 10.956-14.822c7.088 0 15.466 0 16.755 7.089a12.889 12.889 0 0 1-10.955 14.822 12.244 12.244 0 0 1-16.756-7.09z m142.42 451.101a17.4 17.4 0 0 1-12.89-31.577 16.755 16.755 0 0 1 20.623 10.31 15.466 15.466 0 0 1-7.733 27.711z m166.907-286.127a16.755 16.755 0 0 1-19.977 10.955 18.044 18.044 0 0 1-14.178-18.044A17.4 17.4 0 0 1 1024 333.815a16.755 16.755 0 0 1 13.533 18.044z" fill="#50E3C2" p-id="7695"></path><path d="M469.79 483.323a182.374 182.374 0 0 0 64.443 101.175c-5.156-16.755-9.667-33.51 6.444-45.11s9.667-26.421 14.822-44.465 28.355-18.689 28.355-50.91 16.11-28.355 22.555-50.266-3.222-20.622 0-39.31c6.444-7.089-75.398 0-75.398 0a56.065 56.065 0 0 0-23.2 23.2c-3.222 14.821 0 16.754-14.822 34.798s0 28.355-11.6 41.244a39.955 39.955 0 0 0-11.6 29.644z" fill="#A5DAEF" p-id="7696"></path><path d="M511.033 368.614a8.378 8.378 0 0 1-6.444-5.155s0-6.445 5.155-6.445a686.318 686.318 0 0 1 108.91-11.6 5.8 5.8 0 0 1 6.444 6.445 6.444 6.444 0 0 1-6.445 5.8 644.43 644.43 0 0 0-107.62 10.955z" fill="#2C3147" p-id="7697"></path><path d="M837.76 482.034a187.53 187.53 0 0 1-64.443 101.82c5.155-17.4 9.666-34.155-6.445-45.755s-9.666-26.421-14.822-44.465-28.355-18.689-28.355-50.266-16.11-29-21.91-50.91 0-19.977 0-39.31c-6.445-7.089 73.465 0 73.465 0a60.576 60.576 0 0 1 23.2 23.2 45.11 45.11 0 0 0 14.177 34.799c12.244 12.888 0 28.355 12.244 41.243a33.51 33.51 0 0 1 12.889 29.644z" fill="#A5DAEF" p-id="7698"></path><path d="M795.872 367.325a773.317 773.317 0 0 0-106.976-10.31 6.444 6.444 0 0 1-5.8-6.445c0-4.51 0-6.444 5.8-6.444a541.322 541.322 0 0 1 108.264 11.6 7.089 7.089 0 0 1 5.156 6.444 9.022 9.022 0 0 1-6.444 5.155zM579.987 300.95s-6.444 0-5.155-5.8 0-5.155 5.155 0 18.044 0 23.2-11.6 0-3.222 6.444 0 0 0 0 6.445a38.666 38.666 0 0 1-29.644 10.955z m140.486 0a31.577 31.577 0 0 1-30.932-17.4 4.511 4.511 0 0 1 0-5.8 4.511 4.511 0 0 1 5.8 0c5.8 12.245 23.199 11.6 23.199 11.6s5.8 0 5.8 3.222 0 5.156-3.222 5.156z" fill="#2C3147" p-id="7699"></path><path d="M460.123 591.587a79.265 79.265 0 0 1-68.954-27.71c-14.177-27.71 9.022-73.465 59.932-124.375h9.022c4.511 4.51 4.511 4.51 0 9.022-45.754 46.399-68.954 83.131-55.42 106.33S451.1 579.988 505.877 572.9a608.342 608.342 0 0 0 188.818-73.465A682.452 682.452 0 0 0 860.315 379.57c36.732-36.733 50.91-73.466 41.243-91.51s-63.798-30.288-137.908-9.666c-4.51 0-9.022 0-9.022-4.511s0-9.022 4.511-9.022c83.132-23.2 137.908-18.689 152.086 13.533s0 64.443-41.244 105.687a828.738 828.738 0 0 1-165.619 124.375 689.54 689.54 0 0 1-193.329 71.531 211.373 211.373 0 0 1-50.91 11.6z" fill="#2C3147" p-id="7700"></path><path d="M380.214 813.916a31.577 31.577 0 0 0 10.955 0 3.867 3.867 0 0 0 0 3.222v3.866a104.398 104.398 0 0 0 21.91 0v10.311a86.998 86.998 0 0 0-21.91 0v10.311h19.333a16.11 16.11 0 0 0 0 9.667h-18.044a64.443 64.443 0 0 0 0 10.955H379.57v-10.31l-29 5.155a39.955 39.955 0 0 0 0-11.6h30.933v-10.311a146.286 146.286 0 0 0-25.777 3.866 23.844 23.844 0 0 0 0-9.666 86.998 86.998 0 0 0 10.31-17.4H351.86v-12.888h18.044a94.087 94.087 0 0 0 4.511-12.244 22.555 22.555 0 0 0 11.6 0s3.866 0 0 3.866a9.666 9.666 0 0 0-5.156 5.156 281.616 281.616 0 0 0 32.222 0v11.6a217.817 217.817 0 0 0-37.377 0l-8.378 15.466h16.111c-2.578-4.511-3.222-7.089-3.222-9.022z m0 96.02v9.666H367.97a119.864 119.864 0 0 0 0-14.177V875.78a32.222 32.222 0 0 0 0-10.955h85.065a52.199 52.199 0 0 0 0 10.955v26.422a55.421 55.421 0 0 0 0 14.177h-12.889v-6.444z m59.932-25.777v-9.667h-59.932v9.667z m-59.932 7.733v10.31h59.932v-9.666z m50.91-64.443a72.82 72.82 0 0 1-9.666 31.577 39.31 39.31 0 0 0-11.6-5.8c10.31-8.378 12.888-23.2 9.666-54.777a155.952 155.952 0 0 0 40.6-10.31 71.532 71.532 0 0 0 7.088 10.31s0 3.222 0 0a174.64 174.64 0 0 0-34.8 5.156v11.6h41.889v10.955h-17.4v12.244a163.04 163.04 0 0 0 0 18.044h-12.244a163.04 163.04 0 0 0 0-18.044V826.16z m179.796 10.31v12.89h-41.243v45.11c0 4.51 0 5.8 9.666 5.8 19.333 0 19.333 0 22.555-19.334a24.488 24.488 0 0 0 13.533 8.378c-6.444 20.622-8.378 22.555-35.444 22.555s-22.555 0-22.555-14.178v-48.332h-8.377a85.71 85.71 0 0 1-48.977 64.443l-10.955-12.888a69.598 69.598 0 0 0 47.688-56.066h-43.177v-8.377h45.11v-29.644h-33.51v-12.889h93.442v12.889h-45.11a220.395 220.395 0 0 1 0 29.644z m25.133-10.31v-10.311h28.355v-13.533a105.687 105.687 0 0 0 0-14.822h12.888v25.777h27.066v10.311h-27.066a224.906 224.906 0 0 0 0 22.555h-13.533v-20.622a69.598 69.598 0 0 1-24.488 28.355 29.644 29.644 0 0 0-10.31-9.022 55.421 55.421 0 0 0 28.354-21.266z m64.443 64.443a34.155 34.155 0 0 0-6.444 9.022l-12.245-5.8a74.754 74.754 0 0 1-41.243 18.044 33.51 33.51 0 0 0-9.667-10.955 70.887 70.887 0 0 0 40.6-10.311 198.485 198.485 0 0 0-25.133-4.511l8.377-17.4a85.71 85.71 0 0 0-19.977 0v-10.31h22.555l3.867-12.245a34.155 34.155 0 0 0 11.6 3.222c3.866 0 3.866 0 0 0a12.889 12.889 0 0 0-4.512 6.445h29a113.42 113.42 0 0 1-10.311 27.066z m-56.066-79.265a64.443 64.443 0 0 0 0-14.822h10.956a109.553 109.553 0 0 1 0 14.177z m14.178 68.954l19.333 3.866a33.51 33.51 0 0 0 5.155-14.821h-18.688z m32.221-31.577l-12.888-12.244 7.733-5.8 12.244 12.244z m0-36.733h-9.666a56.71 56.71 0 0 0 6.444-16.755l11.6 3.222s-4.511 5.156-9.022 13.533z m4.511 102.465a60.576 60.576 0 0 0-9.022-10.311 64.443 64.443 0 0 0 34.8-19.978 96.665 96.665 0 0 1-9.022-43.82 98.598 98.598 0 0 1-9.667 14.821 41.888 41.888 0 0 0-7.089-7.733 123.73 123.73 0 0 0 21.267-59.288 40.6 40.6 0 0 0 14.177 3.222s3.222 0 0 0 0 0-7.089 17.4h34.155v11.6h-9.666a148.863 148.863 0 0 1-14.178 64.443 57.999 57.999 0 0 0 26.422 14.177 33.51 33.51 0 0 0-8.378 13.533 88.931 88.931 0 0 1-24.488-18.688 89.576 89.576 0 0 1-32.866 20.622z m41.888-93.443h-16.11a97.309 97.309 0 0 1-8.378 18.689h9.022a91.51 91.51 0 0 0 5.156 33.51 128.886 128.886 0 0 0 9.666-52.199z m56.066 10.311h-17.4V820.36a64.443 64.443 0 0 0 17.4 0 150.797 150.797 0 0 0 0-32.222 43.821 43.821 0 0 0 12.244 0q7.089 0 0 3.867a5.155 5.155 0 0 0 0 5.155v21.911h11.6v12.244h-11.6v19.978l12.244-5.8a33.51 33.51 0 0 0 0 11.6l-14.177 4.51v40.6c0 11.6 0 13.533-21.266 17.4a23.2 23.2 0 0 0-5.8-15.467c12.888 0 16.755 0 16.755-3.867v-31.577a145.641 145.641 0 0 0-16.755 10.311 45.755 45.755 0 0 0 0-15.466l19.333-5.8z m76.043 38.666a146.286 146.286 0 0 0 24.488 0 64.443 64.443 0 0 0 0 12.244v18.689a99.887 99.887 0 0 0 0 14.177h-11.6v-5.8H849.36v7.733h-11.6a114.064 114.064 0 0 0 0-16.11V881.58a70.243 70.243 0 0 0 0-12.244 128.886 128.886 0 0 0 21.267 0V853.87h-23.844v-11.6h23.844v-10.955h-25.133a143.708 143.708 0 0 1-17.4 84.42 23.2 23.2 0 0 0-11.6-4.51 99.887 99.887 0 0 0 17.4-56.066V797.16a175.93 175.93 0 0 0 34.8 0 336.393 336.393 0 0 0 38.02 0 128.886 128.886 0 0 0 0 18.045 157.885 157.885 0 0 0 0 17.4h-25.132v15.465h31.577v11.6h-31.577z m-35.444-48.977h48.977v-14.822h-48.977z m48.332 57.355H849.36v22.555h32.866z m164.33-30.933a43.821 43.821 0 0 1-38.021 25.133 43.821 43.821 0 0 1-32.866-14.822 30.288 30.288 0 0 0-23.2-11.6 30.933 30.933 0 0 0-25.133 18.044l-12.244-6.444a43.177 43.177 0 0 1 37.377-25.777 44.466 44.466 0 0 1 33.51 15.466 27.71 27.71 0 0 0 22.556 10.955 29.644 29.644 0 0 0 25.132-18.044z" fill="#C4C4C4" p-id="7701"></path></svg>