<?xml version="1.0" standalone="no"?><!DOCTYPE svg PUBLIC "-//W3C//DTD SVG 1.1//EN" "http://www.w3.org/Graphics/SVG/1.1/DTD/svg11.dtd"><svg t="1564646046568" class="icon" viewBox="0 0 1024 1024" version="1.1" xmlns="http://www.w3.org/2000/svg" p-id="2122" xmlns:xlink="http://www.w3.org/1999/xlink" width="200" height="200"><defs><style type="text/css"></style></defs><path d="M235.99 287.27c0 0 0 0 0 0 0 19.471 15.785 35.257 35.257 35.257 19.471 0 35.257-15.785 35.257-35.257 0 0 0 0 0 0 0 0 0 0 0 0 0-19.471-15.785-35.257-35.257-35.257-19.471 0-35.257 15.785-35.257 35.257s0 0 0 0z" p-id="2123" fill="#13227a"></path><path d="M398.882 290.666c0 0 0 0 0 0 0 19.471 15.785 35.257 35.257 35.257 19.471 0 35.257-15.785 35.257-35.257 0 0 0 0 0 0 0 0 0 0 0 0 0-19.471-15.785-35.257-35.257-35.257-19.471 0-35.257 15.785-35.257 35.257s0 0 0 0z" p-id="2124" fill="#13227a"></path><path d="M603.815 652.832c-1.696-1.508-4.148-1.131-5.655 0.565s-1.131 4.148 0.565 5.655c0 0 2.829 2.451 7.54 6.601 0.753 0.753 1.696 0.944 2.639 0.944 1.131 0 2.26-0.377 3.018-1.321 1.508-1.696 1.321-4.148-0.377-5.655-4.714-4.148-7.54-6.601-7.73-6.788zM626.062 673.194c-1.696-1.508-4.148-1.508-5.655 0.189s-1.508 4.148 0.189 5.655c4.901 4.714 9.614 9.237 13.95 13.762 0.753 0.753 1.885 1.321 2.829 1.321s2.075-0.377 2.829-1.131c1.508-1.508 1.696-4.148 0.189-5.655-4.714-4.714-9.426-9.426-14.33-14.141zM765.386 747.852c-6.601 1.696-12.819 3.018-18.853 3.958-2.26 0.377-3.771 2.451-3.394 4.525 0.377 2.075 2.075 3.394 3.958 3.394h0.565c6.222-0.944 13.009-2.451 19.795-4.148 2.075-0.565 3.394-2.829 2.829-4.901-0.565-2.075-2.829-3.394-4.901-2.829zM837.405 718.064c-5.844 3.205-11.689 6.222-17.534 8.861-2.075 0.944-2.829 3.394-1.885 5.279 0.753 1.508 2.075 2.26 3.582 2.26 0.565 0 1.131-0.189 1.696-0.377 5.844-2.829 11.877-5.844 17.723-9.050 1.885-1.131 2.639-3.394 1.696-5.467-0.944-1.885-3.394-2.639-5.279-1.508zM802.148 735.033c-6.222 2.639-12.255 4.901-18.289 6.976-2.075 0.753-3.205 3.018-2.451 5.090 0.565 1.696 2.075 2.639 3.771 2.639 0.377 0 0.944 0 1.321-0.189 6.032-2.075 12.255-4.525 18.665-7.165 2.075-0.944 3.018-3.205 2.075-5.279-0.753-1.885-3.018-3.018-5.090-2.075zM871.34 698.455c-5.655 3.582-11.312 6.976-16.779 10.181-1.885 1.131-2.639 3.582-1.508 5.467 0.753 1.321 2.075 2.075 3.394 2.075 0.753 0 1.321-0.189 2.075-0.565 5.467-3.205 11.312-6.601 16.967-10.181 1.885-1.131 2.451-3.582 1.321-5.467s-3.582-2.829-5.467-1.508zM727.302 753.507h-0.944c-6.41 0-12.444-0.565-17.91-1.696-2.26-0.377-4.335 0.944-4.714 3.205-0.377 2.26 0.944 4.335 3.205 4.714 6.032 1.321 12.633 1.885 19.607 1.885h0.944c2.26 0 3.958-1.885 3.958-3.958 0-2.451-1.885-4.148-4.148-4.148zM989.737 644.914l1.321-2.639h1.321c6.032 0 10.935-4.901 10.935-10.935s-4.901-10.935-10.935-10.935-10.935 4.901-10.935 10.935c0 2.639 0.944 5.279 2.639 7.165l-1.885 3.771c-2.075-0.377-4.335-0.565-6.601-0.565-7.54 0-14.33 2.451-19.985 6.601l-6.032-5.467c0.753-1.508 1.131-3.018 1.131-4.714 0-6.032-4.901-10.935-10.935-10.935s-10.935 4.901-10.935 10.935 4.901 10.935 10.935 10.935c1.508 0 2.829-0.377 3.958-0.753l5.844 5.467c-1.321 1.508-2.451 3.018-3.394 4.714-1.508-0.565-2.829-0.944-4.525-1.321-0.189 0-0.377 0-0.377-0.189-2.829-0.565-5.655-0.944-8.673-0.944-16.967 0-31.108 15.648-32.992 25.263-1.131-0.377-2.26-0.189-3.394 0.565-2.829 1.885-5.655 3.771-8.294 5.655-1.885 1.131-2.451 3.771-1.131 5.655 0.753 1.131 2.075 1.885 3.394 1.885 0.753 0 1.508-0.189 2.26-0.753 2.639-1.696 5.467-3.582 8.106-5.467 3.394 9.050 14.517 19.795 27.903 21.681h0.377c1.131 0.189 2.451 0.189 3.582 0.189 6.788 0 13.009-1.696 18.289-4.525 0.377-0.189 0.565-0.377 0.944-0.565 1.321-0.753 2.639-1.696 3.771-2.639 5.655 3.958 12.444 6.41 19.795 6.41 18.665 0 33.935-15.27 33.935-33.935 0.189-13.385-7.918-25.074-19.42-30.543zM939.588 641.143c-1.696 0-3.018-1.321-3.018-3.018s1.321-3.018 3.018-3.018 3.018 1.321 3.018 3.018-1.321 3.018-3.018 3.018zM992.187 628.512c1.696 0 3.018 1.321 3.018 3.018s-1.321 3.018-3.018 3.018-3.018-1.321-3.018-3.018 1.321-3.018 3.018-3.018zM907.538 683.562c0-2.075 3.394-7.73 8.673-12.255-0.377 1.131-0.565 2.451-0.753 3.771-1.131 6.976-0.565 15.459 2.451 22.813-6.41-4.525-10.37-10.935-10.37-14.33zM932.612 702.981h-1.508c-7.73-6.601-9.050-17.91-7.73-26.582 1.131-7.165 3.771-10.37 4.525-10.746 0.565-0.189 0.944-0.565 1.321-0.944 1.131-0.189 2.26-0.377 3.394-0.377h0.189c-2.451 4.714-3.958 10.935-3.771 16.967 0.377 8.673 4.148 16.025 10.559 20.738-2.26 0.565-4.525 0.944-6.976 0.944zM948.827 698.269c-9.426-3.958-11.689-11.501-11.877-17.344-0.377-7.354 2.451-13.385 4.525-15.459 0.565 0.189 0.944 0.377 1.508 0.377-0.944 3.018-1.508 6.41-1.508 9.804 0 8.294 3.018 16.025 8.106 22.058-0.189 0.189-0.377 0.377-0.753 0.565zM975.409 701.662c-14.33 0-25.828-11.689-25.828-25.828s11.689-25.828 25.828-25.828 25.828 11.689 25.828 25.828-11.501 25.828-25.828 25.828z" p-id="2125" fill="#13227a"></path><path d="M958.252 670.555c0 0 0 0 0 0 0 3.124 2.531 5.655 5.655 5.655 3.124 0 5.655-2.531 5.655-5.655 0 0 0 0 0 0 0 0 0 0 0 0 0-3.124-2.531-5.655-5.655-5.655-3.124 0-5.655 2.531-5.655 5.655s0 0 0 0z" p-id="2126" fill="#13227a"></path><path d="M982.573 668.105c0 0 0 0 0 0 0 3.124 2.531 5.655 5.655 5.655 3.124 0 5.655-2.531 5.655-5.655 0 0 0 0 0 0 0 0 0 0 0 0 0-3.124-2.531-5.655-5.655-5.655-3.124 0-5.655 2.531-5.655 5.655s0 0 0 0z" p-id="2127" fill="#13227a"></path><path d="M748.796 252.959c4.714-1.508 23.943 3.582 38.462 17.534 7.73 7.54 16.025 19.795 11.689 35.632-1.131 4.335 1.321 8.673 5.467 9.991 0.753 0.189 1.508 0.377 2.26 0.377 3.582 0 6.788-2.26 7.73-5.844 5.090-18.289-0.565-36.763-16.025-51.658-16.025-15.459-41.666-25.452-54.675-21.303-4.148 1.321-6.601 5.844-5.279 10.181 1.696 4.148 6.222 6.41 10.37 5.090zM754.64 210.351c5.090-0.944 37.14 0.944 60.707 20.363 17.534 14.517 26.395 35.257 26.395 61.46 0 4.525 3.582 8.106 7.918 8.106 4.335 0 8.106-3.582 8.106-7.918 0.189-31.484-10.746-56.371-32.238-74.093-26.96-22.058-63.346-25.828-74.093-23.755-4.335 0.944-7.165 5.090-6.222 9.426s5.090 7.165 9.426 6.41zM186.406 690.915c-55.239-14.141-48.076-80.88-47.698-83.708 0.565-4.335-2.639-8.484-6.976-9.050-4.335-0.565-8.484 2.639-9.050 6.976-0.189 0.753-2.451 20.927 3.394 43.173 8.106 30.543 27.526 50.715 56.181 58.066 0.753 0.189 1.321 0.189 2.075 0.189 3.582 0 6.788-2.451 7.73-6.032 1.321-4.148-1.321-8.673-5.655-9.614z" p-id="2128" fill="#13227a"></path><path d="M633.791 790.084l0.944-9.426 72.396-31.674c1.131-0.565 2.075-1.321 3.018-2.26l160.628-191.359c2.451-2.829 2.451-6.976 0.377-9.804-2.075-3.018-6.032-4.148-9.426-2.829l-52.034 20.738v-110.101c0-2.451-1.131-4.714-3.018-6.222s-4.525-2.075-6.788-1.508l-70.321 16.402-12.444-18.665c36.953-10.181 64.29-44.116 64.29-84.463 0-48.265-39.214-87.477-87.477-87.477s-87.477 39.214-87.477 87.477c0 5.844 0.565 11.689 1.696 17.344l-69.945 5.467v-72.396c0-135.932-110.48-246.411-246.411-246.411s-246.411 110.48-246.411 246.411v519.025c-19.42 11.312-29.977 23.755-29.977 36.763 0 52.223 171.94 94.642 384.225 94.642s384.225-42.42 384.225-94.642c-0.753-30.543-59.199-57.69-150.070-75.036zM656.603 753.507l13.95-16.025 0.565 1.131c1.696 2.26 3.582 4.335 5.467 6.222l-19.985 8.673zM806.108 582.133l31.484-12.633-138.947 165.531-13.762 6.032c-2.829-2.26-5.279-4.714-7.354-7.54-0.565-0.753-1.508-1.321-2.26-1.508l130.839-149.882zM793.29 463.548v105.953l-224.54 67.305-5.844-119.342 230.384-53.92zM693.555 287.647c39.402 0 71.454 32.051 71.454 71.454s-32.051 71.454-71.454 71.454-71.454-32.051-71.454-71.454 32.051-71.454 71.454-71.454zM612.486 392.094c13.009 31.861 44.493 54.486 81.068 54.486 1.885 0 3.958 0 5.844-0.189l13.009 19.607-159.687 37.329c-3.771 0.944-6.41 4.335-6.222 8.294l5.090 104.823-128.202-209.459 189.097-14.894zM342.887 606.077c0-23.755-9.426-45.248-24.885-60.895l91.248-130.839 128.579 210.023-85.215-49.395c-3.394-1.885-7.54-1.131-10.181 1.696l-123.865 145.358-21.115-39.402c26.96-14.706 45.437-43.551 45.437-76.545zM255.221 677.531c-39.402 0-71.454-32.051-71.454-71.454s32.051-71.454 71.454-71.454 71.454 32.051 71.454 71.454-32.051 71.454-71.454 71.454zM375.315 900.751c-24.508 3.205-52.601 5.090-84.085 5.090-151.012 0-217.377-47.322-230.384-57.69v-538.819c0-127.069 103.315-230.384 230.384-230.384s230.384 103.315 230.384 230.384v73.715l-112.553 8.673c-0.189 0-0.565 0.189-0.753 0.189h-0.565l-1.696 0.565c-0.565 0.189-1.131 0.565-1.508 0.944l-1.508 1.508-97.471 139.515c-14.33-10.181-31.674-16.025-50.336-16.025-48.265 0-87.477 39.214-87.477 87.477s39.214 87.477 87.477 87.477c9.614 0 18.665-1.508 27.338-4.335l24.698 46.001-42.23 49.395c-1.696 1.885-2.26 4.335-1.696 6.788s2.075 4.525 4.335 5.655l112.553 55.239-4.901 48.641zM284.065 787.254l38.837-45.625 0.377-0.377 127.069-148.939 98.412 56.937-162.137 188.342-102.561-50.336zM612.864 841.741l-222.655 72.961 6.222-60.895 221.524-67.305-5.090 55.239zM413.021 831.936l152.899-177.596 211.153-63.158-110.48 126.505-0.189-0.189c-3.771-4.901-7.918-10.181-12.633-15.459-1.508-1.696-3.958-1.885-5.655-0.377-1.696 1.508-1.885 3.958-0.377 5.655 4.525 5.279 8.673 10.37 12.255 15.084 0.377 0.565 0.944 0.944 1.508 1.131l-39.026 44.681-209.459 63.724z" p-id="2129" fill="#13227a"></path></svg>