<?xml version="1.0" standalone="no"?><!DOCTYPE svg PUBLIC "-//W3C//DTD SVG 1.1//EN" "http://www.w3.org/Graphics/SVG/1.1/DTD/svg11.dtd"><svg t="1563327335314" class="icon" viewBox="0 0 1024 1024" version="1.1" xmlns="http://www.w3.org/2000/svg" p-id="2093" xmlns:xlink="http://www.w3.org/1999/xlink" width="200" height="200"><defs><style type="text/css"></style></defs><path d="M814.041346 1019.231497v-84.604812c0-140.670853-134.168348-255.765187-298.103718-255.765188-163.93537 0-298.103718 115.094334-298.103718 255.765188v84.604812z" fill="#5FB0E5" p-id="2094"></path><path d="M233.945671 1019.231497h-32.223523v-84.604812a235.390672 235.390672 0 0 1 9.103506-65.025048l30.995273 8.886756a204.3954 204.3954 0 0 0-7.875256 56.066041z" fill="#0686D8" p-id="2095"></path><path d="M261.689692 840.773866l-28.033021-15.895012a275.995202 275.995202 0 0 1 58.739293-71.527552l21.241516 24.276018a245.65018 245.65018 0 0 0-51.947788 63.146546z" fill="#0686D8" p-id="2096"></path><path d="M830.153108 1019.231497h-32.223524v-84.604812c0-132.145347-126.509843-239.653426-281.775206-239.653426a314.64898 314.64898 0 0 0-160.539618 43.350032l-16.689762-28.105271a346.800254 346.800254 0 0 1 177.01263-47.540535c173.400127 0 314.21548 122.030339 314.21548 271.9492z" fill="#0686D8" p-id="2097"></path><path d="M760.431807 461.822338L780.300572 289.000212A264.001693 264.001693 0 0 0 517.238129 25.648769 264.001693 264.001693 0 0 0 254.031186 289.000212l20.085515 172.894376a53.97079 53.97079 0 0 0 53.970789 54.04304h378.301277a53.97079 53.97079 0 0 0 54.04304-54.11529z" fill="#9ECFEF" p-id="2098"></path><path d="M706.388767 531.97714H328.15974a70.299301 70.299301 0 0 1-70.227051-70.154802l-19.941015-171.015875a279.390955 279.390955 0 1 1 558.70966-1.806251l-20.085515 173.905877a70.299301 70.299301 0 0 1-70.227052 69.071051zM517.238129 41.832781A247.384181 247.384181 0 0 0 270.142948 289.000212l19.941014 171.015875a38.581528 38.581528 0 0 0 38.075778 39.737529h378.229027a37.931278 37.931278 0 0 0 37.786778-37.931278v-1.878501l20.157765-172.894377a247.167431 247.167431 0 0 0-247.095181-245.216679z" fill="#0686D8" p-id="2099"></path><path d="M952.472448 799.157835a26.73252 26.73252 0 1 1-26.66027-26.660269 26.66027 26.66027 0 0 1 26.66027 26.660269zM800.602836 679.150497a15.172511 15.172511 0 1 1-15.100261-15.172511 15.028011 15.028011 0 0 1 15.100261 15.172511zM256.632188 645.409723a15.822762 15.822762 0 1 1-15.822762-15.822762 15.822762 15.822762 0 0 1 15.822762 15.822762zM901.03041 413.703803a19.146264 19.146264 0 1 1-19.146264-19.074014 19.146264 19.146264 0 0 1 19.146264 19.074014zM137.636351 398.820292a30.489522 30.489522 0 1 1-30.417272-30.345022 30.489522 30.489522 0 0 1 30.417272 30.345022zM131.422846 793.594581a24.492768 24.492768 0 1 1-24.420518-24.492768 24.420518 24.420518 0 0 1 24.420518 24.492768z" fill="#5FB0E5" p-id="2100"></path><path d="M572.653919 724.379031v-119.935088a56.716292 56.716292 0 0 0-56.716291-56.788542 56.788542 56.788542 0 0 0-56.788542 56.788542v119.935088l56.788542 18.857263z" fill="#FFFFFF" p-id="2101"></path><path d="M515.937628 760.215057l-72.900304-24.203768V604.443943a72.900303 72.900303 0 0 1 145.800607 0v131.567346z m-40.67678-47.540535l40.67678 13.58301L556.325407 712.674522v-108.375079a40.67678 40.67678 0 0 0-81.281309 0z" fill="#0686D8" p-id="2102"></path><path d="M728.208283 284.520708V447.950328a212.776406 212.776406 0 0 1-212.198405 212.053905A212.776406 212.776406 0 0 1 303.811473 447.950328V284.520708l54.62104-25.504268 47.251534-60.256544 81.64256 62.496295a112.565582 112.565582 0 0 0 68.5653 23.264517z" fill="#FFFFFF" p-id="2103"></path><path d="M516.009878 682.0405a228.599167 228.599167 0 0 1-228.310167-228.382418v-163.285119h32.223523v163.285119a196.086644 196.086644 0 0 0 392.173288 0v-163.285119H744.175545v163.285119A228.599167 228.599167 0 0 1 516.009878 682.0405z" fill="#0686D8" p-id="2104"></path><path d="M753.640302 300.63247H549.967403a160.611868 160.611868 0 0 1-160.395118-160.467367v-27.09377h32.223524v27.09377a128.316094 128.316094 0 0 0 128.171594 128.243844h203.672899z" fill="#0686D8" p-id="2105"></path><path d="M610.296197 240.375926a160.611868 160.611868 0 0 1-160.467368-160.467367h32.295774A128.243844 128.243844 0 0 0 610.296197 208.080152z" fill="#0686D8" p-id="2106"></path><path d="M284.014958 300.63247l-0.867001-32.223523a105.918578 105.918578 0 0 0 106.424328-105.557328V59.823044h32.223524v103.028575a137.925351 137.925351 0 0 1-137.780851 137.780851z" fill="#0686D8" p-id="2107"></path><path d="M619.616454 547.799901H415.654554a71.455302 71.455302 0 0 1 71.455303-71.455302h61.051294a71.455302 71.455302 0 0 1 71.455303 71.455302z" fill="#9ECFEF" p-id="2108"></path><path d="M635.800466 563.911663H399.542793v-16.111762a87.711564 87.711564 0 0 1 87.567064-87.639314h61.051294A87.711564 87.711564 0 0 1 635.800466 547.799901z m-201.577648-32.223524h166.897622a55.488041 55.488041 0 0 0-52.959289-39.231778h-61.051294a55.343541 55.343541 0 0 0-52.887039 39.231778z" fill="#0686D8" p-id="2109"></path><path d="M479.234601 566.657165h86.338813v32.295774H479.234601z" fill="#0686D8" p-id="2110"></path><path d="M463.122839 512.036125h32.295774v30.778523H463.122839z" fill="#0686D8" p-id="2111"></path><path d="M503.293869 512.036125h32.295773v30.778523h-32.295773z" fill="#0686D8" p-id="2112"></path><path d="M543.464898 512.036125h32.295774v30.778523h-32.295774z" fill="#0686D8" p-id="2113"></path><path d="M561.166161 452.646582H478.873351V341.16475h32.223523v79.258308h50.069287v32.223524z" fill="#0686D8" p-id="2114"></path><path d="M405.684047 325.052988h34.246525v32.295774h-34.246525z" fill="#0686D8" p-id="2115"></path><path d="M585.803429 325.052988h34.246525v32.295774h-34.246525z" fill="#0686D8" p-id="2116"></path><path d="M510.446624 747.426797l-80.920059 95.65907a6.213505 6.213505 0 0 1-10.765258-2.745502l-26.73252-138.069851 52.453539-15.895011zM526.991886 747.426797l80.920059 95.65907a6.213505 6.213505 0 0 0 10.765258-2.745502l32.657024-124.559091-60.690044-21.675016z" fill="#D2E9F7" p-id="2117"></path><path d="M424.902561 861.365131a21.675016 21.675016 0 0 1-5.635504-0.722501 21.675016 21.675016 0 0 1-16.328512-17.123262l-29.550272-152.447612 75.284556-22.831017 84.026811 77.813307-90.890566 107.435829a21.675016 21.675016 0 0 1-16.906513 7.875256z m-14.45001-147.895858l20.013264 103.317575 57.800043-67.9873-47.829535-44.289282z" fill="#0686D8" p-id="2118"></path><path d="M612.535949 861.437381a22.036266 22.036266 0 0 1-16.906513-7.947506l-91.396317-108.013829 83.159811-69.793551 83.304311 29.911522-36.125026 138.792351a21.675016 21.675016 0 0 1-16.111762 16.328512 25.070768 25.070768 0 0 1-5.924504 0.722501z m-62.713046-112.059832l57.800042 68.63755 24.059268-92.046567-37.786778-13.65526z" fill="#0686D8" p-id="2119"></path></svg>